# xmcd CD database file
#
# Track frame offsets:
#	150
#	41999
#	67020
#	90283
#	102850
#	113368
#	122645
#	142868
#	153206
#	169425
#	184680
#	204741
#	218640
#
# Disc length: 3066 seconds
#
# Revision: 0
# Processed by: cddbd v1.5.2PL0 Copyright (c) Steve Scherf et al.
# Submitted via: CDex 1.51
#
DISCID=ad0bf80d
DTITLE=Tomaso Albinoni - Adagio, Sonata, Concerti, Sinfonia
DYEAR=1900
DGENRE=Classique
TTITLE0=Adagio pour cordes et orgue en sol mineur - Réalisation - Remo Giazotto [Kibutz Chamber Orch]
TTITLE1=Sonata a cinque en mi mineur - Allegro - Adagio - Allegro [Rodan, Ramat-Gan Chamber Orch]
TTITLE2=Concerto N°1, Op.7 - Allegro - Adagio - Allegro [Mendi Rodan, The Ramat-Gan Chamber Orch]
TTITLE3=Concerto N°12, Op.7 - I. Allegro [Louis Froment, Orchestre symphonique de radio Luxembourg]
TTITLE4=Concerto N°12, Op.7 - II. Adagio
TTITLE5=Concerto N°12, Op.7 - III. Allegro
TTITLE6=Concerto N°3, Op.9 - I. Allegro [Concerto Armonico - Paolo Grazzi and Alfredo Benardini, hautbois]
TTITLE7=Concerto N°3, Op.9 - II. Adagio
TTITLE8=Concerto N°3, Op.9 - III. Allegro
TTITLE9=Sinfonia a quattro, en fa majeur - I. Allegro  [Ottavio Dantone, Accademica Bizantina]
TTITLE10=Sinfonia a quattro, en fa majeur - II. Andante
TTITLE11=Sinfonia a quattro, en fa majeur - III. Menuet
TTITLE12=Sinfonia a quattro, en fa majeur - IV. Allegro
EXTD=
EXTT0=
EXTT1=
EXTT2=
EXTT3=
EXTT4=
EXTT5=
EXTT6=
EXTT7=
EXTT8=
EXTT9=
EXTT10=
EXTT11=
EXTT12=
PLAYORDER=
